<svg width="112" height="325" viewBox="0 0 112 325" fill="none" xmlns="http://www.w3.org/2000/svg">
<path d="M56.75 79.7H61.75V74.7H56.75V79.7ZM5 79.7H1.90735e-06V84.7H5V79.7ZM5 44.6V39.6H1.90735e-06V44.6H5ZM38.75 41L37.4204 36.18L37.3983 36.1861L37.3764 36.1924L38.75 41ZM59.45 29.3L63.0851 32.7331L63.1313 32.6842L63.1762 32.634L59.45 29.3ZM72.95 4.99998V-2.28882e-05H69.4734L68.2629 3.25905L72.95 4.99998ZM106.25 4.99998H111.25V-2.28882e-05H106.25V4.99998ZM106.25 320V325H111.25V320H106.25ZM56.75 320H51.75V325H56.75V320ZM56.75 74.7H5V84.7H56.75V74.7ZM10 79.7V44.6H1.90735e-06V79.7H10ZM5 49.6C19.3173 49.6 31.0891 48.3889 40.1236 45.8076L37.3764 36.1924C29.6109 38.4111 18.8827 39.6 5 39.6V49.6ZM40.0797 45.82C49.4707 43.2293 57.2351 38.9271 63.0851 32.7331L55.8149 25.8669C51.4649 30.4728 45.4293 33.9707 37.4204 36.18L40.0797 45.82ZM63.1762 32.634C68.8395 26.3044 73.6115 17.5792 77.6371 6.74091L68.2629 3.25905C64.4885 13.4208 60.2605 20.8956 55.7238 25.966L63.1762 32.634ZM72.95 9.99998H106.25V-2.28882e-05H72.95V9.99998ZM101.25 4.99998V320H111.25V4.99998H101.25ZM106.25 315H56.75V325H106.25V315ZM61.75 320V79.7H51.75V320H61.75Z" fill="#404B69"/>
</svg>
