<svg width="159" height="330" viewBox="0 0 159 330" fill="none" xmlns="http://www.w3.org/2000/svg">
<path d="M16.35 233.2L20.9048 235.263L20.912 235.247L20.9191 235.231L16.35 233.2ZM55.05 179.65L58.668 183.101L58.6821 183.086L58.6959 183.072L55.05 179.65ZM92.85 129.7L88.4171 127.387L88.3971 127.425L88.3779 127.464L92.85 129.7ZM96.9 58.6L92.9532 61.6697L93.0483 61.792L93.1508 61.9081L96.9 58.6ZM52.35 115.3V120.3H57.35V115.3H52.35ZM5.55 115.3H0.55V120.3H5.55V115.3ZM24.45 26.2L28.1053 29.6116L28.124 29.5916L28.1424 29.5713L24.45 26.2ZM134.25 26.2L130.558 29.5713L130.576 29.5916L130.595 29.6116L134.25 26.2ZM139.2 140.95L134.743 138.685L134.728 138.714L134.713 138.743L139.2 140.95ZM91.95 203.95L88.3239 200.507L88.3174 200.514L88.3111 200.521L91.95 203.95ZM62.25 242.2L66.6656 244.546L66.6804 244.518L66.6949 244.49L62.25 242.2ZM54.6 280H49.6V285H54.6V280ZM148.65 280H153.65V275H148.65V280ZM148.65 325V330H153.65V325H148.65ZM5.55 325H0.55V330H5.55V325ZM10.55 290.8C10.55 268.814 14.07 250.356 20.9048 235.263L11.7952 231.137C4.22996 247.844 0.55 267.786 0.55 290.8H10.55ZM20.9191 235.231C27.7977 219.754 40.2799 202.379 58.668 183.101L51.432 176.199C32.6201 195.921 19.3023 214.246 11.7809 231.169L20.9191 235.231ZM58.6959 183.072C77.1226 163.437 90.1035 146.373 97.3221 131.936L88.3779 127.464C81.7965 140.627 69.5774 156.863 51.4041 176.228L58.6959 183.072ZM97.2829 132.013C104.841 117.527 108.65 102.336 108.65 86.5H98.65C98.65 100.664 95.2591 114.273 88.4171 127.387L97.2829 132.013ZM108.65 86.5C108.65 72.8091 106.443 61.8583 100.649 55.2919L93.1508 61.9081C96.3569 65.5417 98.65 73.1909 98.65 86.5H108.65ZM100.847 55.5303C95.4835 48.6346 87.5532 45.5 78 45.5V55.5C85.2468 55.5 89.9165 57.7654 92.9532 61.6697L100.847 55.5303ZM78 45.5C68.4009 45.5 60.3823 48.451 54.9077 55.0781C49.5842 61.5223 47.35 70.6369 47.35 81.55H57.35C57.35 71.7631 59.3908 65.3527 62.6173 61.4469C65.6927 57.724 70.4991 55.5 78 55.5V45.5ZM47.35 81.55V115.3H57.35V81.55H47.35ZM52.35 110.3H5.55V120.3H52.35V110.3ZM10.55 115.3V84.7H0.55V115.3H10.55ZM10.55 84.7C10.55 59.9795 16.6525 41.8824 28.1053 29.6116L20.7947 22.7884C7.04749 37.5176 0.55 58.4205 0.55 84.7H10.55ZM28.1424 29.5713C39.5425 17.0855 56.3307 10.5 79.35 10.5V0.499985C54.3693 0.499985 34.5575 7.71447 20.7576 22.8286L28.1424 29.5713ZM79.35 10.5C102.369 10.5 119.157 17.0855 130.558 29.5713L137.942 22.8286C124.143 7.71447 104.331 0.499985 79.35 0.499985V10.5ZM130.595 29.6116C142.047 41.8824 148.15 59.9795 148.15 84.7H158.15C158.15 58.4205 151.653 37.5176 137.905 22.7884L130.595 29.6116ZM148.15 84.7C148.15 103.059 143.711 121.037 134.743 138.685L143.657 143.215C153.289 124.263 158.15 104.741 158.15 84.7H148.15ZM134.713 138.743C126.029 156.402 110.659 176.981 88.3239 200.507L95.5761 207.393C118.241 183.519 134.371 162.098 143.687 143.157L134.713 138.743ZM88.3111 200.521C73.5285 216.209 63.2348 229.37 57.8051 239.91L66.6949 244.49C71.4652 235.23 80.9715 222.891 95.589 207.379L88.3111 200.521ZM57.8344 239.854C52.3423 250.192 49.6 261.35 49.6 273.25H59.6C59.6 262.95 61.9577 253.408 66.6656 244.546L57.8344 239.854ZM49.6 273.25V280H59.6V273.25H49.6ZM54.6 285H148.65V275H54.6V285ZM143.65 280V325H153.65V280H143.65ZM148.65 320H5.55V330H148.65V320ZM10.55 325V290.8H0.55V325H10.55Z" fill="#404B69"/>
</svg>
