<svg width="159" height="335" viewBox="0 0 159 335" fill="none" xmlns="http://www.w3.org/2000/svg">
<path d="M24.3 309.25L20.604 312.617L20.6242 312.64L20.6447 312.662L24.3 309.25ZM5.85 225.55V220.55H0.85V225.55H5.85ZM52.65 225.55H57.65V220.55H52.65V225.55ZM97.2 276.85L93.3589 273.649L93.3496 273.66L93.3404 273.671L97.2 276.85ZM96.3 192.7L92.4138 195.846L92.4515 195.893L92.4903 195.938L96.3 192.7ZM54.9 183.25H49.9V188.25H54.9V183.25ZM54.9 138.25V133.25H49.9V138.25H54.9ZM94.95 130.6L91.4145 127.064L91.3609 127.118L91.309 127.173L94.95 130.6ZM95.85 58.15L99.5992 54.8419L99.5992 54.8419L95.85 58.15ZM54 100.45V105.45H59V100.45H54ZM7.2 100.45H2.2V105.45H7.2V100.45ZM25.65 25.75L21.9947 22.3384L21.9742 22.3604L21.954 22.3825L25.65 25.75ZM133.65 25.75L129.954 29.1174L129.973 29.1381L129.992 29.1586L133.65 25.75ZM143.55 136L147.915 138.439L147.93 138.412L147.944 138.385L143.55 136ZM117 158.05L115.244 153.368L112 154.585V158.05H117ZM117 158.95H112V162.424L115.256 163.636L117 158.95ZM144.9 182.35L140.478 184.684L140.478 184.684L144.9 182.35ZM134.55 309.7L130.895 306.288L130.892 306.291L134.55 309.7ZM79.65 324.5C56.2765 324.5 39.3362 318.032 27.9553 305.838L20.6447 312.662C34.4638 327.468 54.4235 334.5 79.65 334.5V324.5ZM27.996 305.883C16.8083 293.603 10.85 275.63 10.85 251.2H0.85C0.85 277.17 7.19169 297.897 20.604 312.617L27.996 305.883ZM10.85 251.2V225.55H0.85V251.2H10.85ZM5.85 230.55H52.65V220.55H5.85V230.55ZM47.65 225.55V253.45H57.65V225.55H47.65ZM47.65 253.45C47.65 264.363 49.8842 273.478 55.2077 279.922C60.6823 286.549 68.7009 289.5 78.3 289.5V279.5C70.7991 279.5 65.9927 277.276 62.9173 273.553C59.6908 269.647 57.65 263.237 57.65 253.45H47.65ZM78.3 289.5C87.7543 289.5 95.6618 286.583 101.06 280.029L93.3404 273.671C90.3382 277.317 85.6458 279.5 78.3 279.5V289.5ZM101.041 280.051C106.712 273.245 108.95 262.423 108.95 248.95H98.95C98.95 261.877 96.6876 269.655 93.3589 273.649L101.041 280.051ZM108.95 248.95V223.3H98.95V248.95H108.95ZM108.95 223.3C108.95 208.585 106.399 196.861 100.11 189.462L92.4903 195.938C96.4013 200.539 98.95 209.215 98.95 223.3H108.95ZM100.186 189.554C93.7951 181.659 83.8155 178.25 71.55 178.25V188.25C82.0845 188.25 88.6049 191.141 92.4138 195.846L100.186 189.554ZM71.55 178.25H54.9V188.25H71.55V178.25ZM59.9 183.25V138.25H49.9V183.25H59.9ZM54.9 143.25H72.9V133.25H54.9V143.25ZM72.9 143.25C83.5966 143.25 92.5101 140.488 98.591 134.027L91.309 127.173C87.7899 130.912 82.0034 133.25 72.9 133.25V143.25ZM98.4855 134.136C104.982 127.639 107.6 117.443 107.6 104.95H97.6C97.6 116.457 95.118 123.361 91.4145 127.064L98.4855 134.136ZM107.6 104.95V82H97.6V104.95H107.6ZM107.6 82C107.6 70.6608 105.263 61.2609 99.5992 54.8419L92.1008 61.4581C95.437 65.2391 97.6 71.7392 97.6 82H107.6ZM99.5992 54.8419C94.046 48.5483 86.6195 45.5 77.85 45.5V55.5C84.0805 55.5 88.654 57.5517 92.1008 61.4581L99.5992 54.8419ZM77.85 45.5C68.8291 45.5 61.2547 48.3155 56.0874 54.6528C51.0793 60.7948 49 69.4488 49 79.75H59C59 70.5511 60.8957 64.5802 63.8376 60.9722C66.6203 57.5595 70.9709 55.5 77.85 55.5V45.5ZM49 79.75V100.45H59V79.75H49ZM54 95.45H7.2V105.45H54V95.45ZM12.2 100.45V83.8H2.2V100.45H12.2ZM12.2 83.8C12.2 59.3696 18.1583 41.3966 29.346 29.1174L21.954 22.3825C8.54169 37.1034 2.2 57.8304 2.2 83.8H12.2ZM29.3053 29.1616C40.7209 16.9305 57.2423 10.5 79.65 10.5V0.499985C55.2577 0.499985 35.7791 7.56946 21.9947 22.3384L29.3053 29.1616ZM79.65 10.5C102.387 10.5 118.864 16.9452 129.954 29.1174L137.346 22.3825C123.836 7.55475 104.313 0.499985 79.65 0.499985V10.5ZM129.992 29.1586C141.138 41.1204 147.1 58.9106 147.1 83.35H157.1C157.1 57.3893 150.762 36.7796 137.308 22.3414L129.992 29.1586ZM147.1 83.35V94.6H157.1V83.35H147.1ZM147.1 94.6C147.1 111.204 144.324 124.095 139.156 133.615L147.944 138.385C154.176 126.905 157.1 112.196 157.1 94.6H147.1ZM139.185 133.561C134.12 142.626 126.252 149.241 115.244 153.368L118.756 162.732C131.748 157.859 141.58 149.774 147.915 138.439L139.185 133.561ZM112 158.05V158.95H122V158.05H112ZM115.256 163.636C127.162 168.066 135.425 175.11 140.478 184.684L149.322 180.016C142.975 167.99 132.638 159.434 118.744 154.264L115.256 163.636ZM140.478 184.684C145.683 194.546 148.45 207.473 148.45 223.75H158.45C158.45 206.427 155.517 191.754 149.322 180.016L140.478 184.684ZM148.45 223.75V251.65H158.45V223.75H148.45ZM148.45 251.65C148.45 276.052 142.357 294.008 130.895 306.288L138.205 313.112C151.943 298.392 158.45 277.648 158.45 251.65H148.45ZM130.892 306.291C119.832 318.16 103.064 324.5 79.65 324.5V334.5C104.836 334.5 124.668 327.64 138.208 313.109L130.892 306.291Z" fill="#404B69"/>
</svg>
